<?xml version="1.0" standalone="no"?>
<!DOCTYPE svg PUBLIC "-//W3C//DTD SVG 20010904//EN"
 "http://www.w3.org/TR/2001/REC-SVG-20010904/DTD/svg10.dtd">
<svg version="1.0" xmlns="http://www.w3.org/2000/svg"
 width="2000.000000pt" height="2000.000000pt" viewBox="0 0 2000.000000 2000.000000"
 preserveAspectRatio="xMidYMid meet">

<g transform="translate(0.000000,2000.000000) scale(0.100000,-0.100000)"
fill="#000000" stroke="none">
<path d="M12620 18908 c-260 -40 -432 -114 -845 -363 -38 -24 -117 -70 -175
-102 -228 -130 -516 -296 -525 -303 -5 -5 -77 -46 -160 -93 -82 -47 -231 -132
-330 -189 -419 -243 -579 -336 -730 -423 -88 -51 -227 -132 -310 -180 -82 -48
-231 -133 -330 -190 -99 -57 -232 -133 -295 -170 -63 -37 -187 -108 -275 -158
-88 -49 -191 -109 -230 -132 -75 -45 -186 -109 -250 -145 -22 -12 -80 -46
-130 -75 -128 -75 -361 -208 -495 -282 -125 -70 -271 -162 -282 -178 -13 -17
-9 -25 23 -43 17 -9 94 -54 170 -99 77 -46 142 -83 144 -83 2 0 48 -26 102
-59 54 -32 161 -94 238 -138 77 -45 228 -132 335 -194 107 -62 256 -147 330
-189 231 -131 422 -240 510 -293 47 -28 193 -105 325 -172 395 -200 826 -374
1211 -489 243 -72 635 -165 849 -200 121 -20 245 -41 275 -46 30 -5 111 -14
180 -20 69 -6 136 -12 150 -15 14 -2 81 -7 150 -11 69 -3 157 -10 195 -15 72
-8 744 -5 780 4 12 3 75 8 140 12 66 3 134 8 150 10 17 2 82 9 145 15 63 6
142 15 175 20 205 33 274 44 390 67 401 77 934 231 1286 371 318 127 727 322
964 459 66 38 152 87 190 108 39 21 122 68 185 105 163 95 463 268 678 391
226 128 295 187 349 296 34 69 38 85 41 174 5 121 -18 208 -78 292 -55 76
-175 158 -480 327 -84 47 -321 183 -615 355 -82 48 -213 123 -290 167 -77 44
-192 111 -256 148 -63 38 -252 147 -420 243 -167 96 -371 214 -454 262 -82 48
-202 116 -265 152 -63 36 -167 96 -230 133 -112 65 -349 202 -640 370 -80 46
-224 129 -320 185 -213 124 -411 236 -465 263 -46 22 -173 70 -225 84 -153 40
-423 57 -560 36z"/>
<path d="M5149 16416 c-2 -2 -38 -6 -79 -10 -41 -3 -86 -8 -100 -10 -14 -3
-47 -7 -75 -11 -401 -49 -840 -182 -1205 -365 -337 -169 -670 -403 -929 -655
-393 -381 -667 -788 -872 -1294 -115 -282 -194 -604 -236 -966 -16 -133 -18
-252 -18 -1040 0 -885 0 -891 22 -991 93 -420 301 -710 673 -941 36 -22 128
-75 205 -118 77 -43 203 -115 280 -160 158 -92 316 -184 580 -335 99 -57 259
-149 356 -206 96 -56 283 -164 415 -239 131 -75 244 -140 249 -145 6 -4 147
-86 315 -183 168 -96 388 -223 490 -282 102 -59 259 -150 350 -202 91 -53 170
-99 175 -103 9 -7 95 -57 593 -342 269 -155 264 -153 412 -153 115 0 129 2
184 28 79 37 154 103 204 179 79 121 72 -273 72 4100 0 3474 2 3919 15 3924
22 9 18 19 -6 21 -12 1 -69 28 -128 61 -317 176 -673 300 -1061 373 -152 28
-154 28 -280 45 -99 14 -590 30 -601 20z"/>
<path d="M13166 12334 c-170 -40 -315 -187 -346 -354 -7 -37 -10 -1302 -10
-3951 0 -2143 -3 -3904 -6 -3913 -3 -9 -12 -16 -19 -16 -7 0 -64 30 -126 66
-63 37 -175 101 -249 144 -74 42 -225 129 -335 192 -110 64 -245 142 -300 173
-55 31 -126 72 -157 91 -31 19 -119 70 -195 113 -76 43 -257 147 -403 230
-664 383 -1346 664 -1980 816 -102 25 -202 50 -222 55 -52 15 -263 55 -388 74
-58 9 -127 20 -155 26 -27 5 -81 12 -120 15 -38 4 -83 8 -100 10 -16 2 -50 6
-75 9 -25 3 -88 8 -140 12 -52 3 -106 7 -119 10 -152 23 -861 23 -991 -1 -8
-1 -60 -6 -115 -9 -55 -4 -116 -9 -135 -11 -35 -4 -97 -11 -195 -21 -80 -8
-301 -42 -420 -64 -60 -12 -132 -25 -160 -30 -27 -5 -141 -31 -253 -59 -788
-196 -1426 -463 -2197 -920 -60 -35 -171 -99 -245 -141 -398 -227 -634 -364
-713 -416 -120 -78 -186 -197 -195 -353 -5 -98 9 -176 47 -245 53 -100 126
-156 426 -326 117 -66 358 -205 565 -325 69 -39 222 -127 340 -195 118 -68
274 -158 345 -200 72 -42 211 -123 310 -180 99 -57 243 -140 320 -185 189
-110 408 -237 530 -305 55 -31 231 -132 390 -225 367 -213 825 -477 1070 -617
113 -64 258 -131 360 -166 111 -38 350 -67 480 -58 320 22 429 65 960 374 99
58 248 144 330 192 83 48 200 116 260 151 61 34 180 103 265 153 250 145 489
283 1015 586 83 48 301 174 485 280 403 233 992 572 1185 682 77 44 160 93
185 108 25 15 171 98 325 185 154 87 326 187 382 222 57 34 113 63 125 63 13
0 61 -21 108 -48 118 -66 200 -104 380 -177 246 -99 405 -147 654 -195 283
-55 361 -63 681 -66 322 -3 414 4 680 52 77 14 161 30 186 34 87 16 364 102
499 155 208 82 327 137 477 220 770 430 1340 1071 1661 1870 101 251 145 410
206 745 50 274 51 288 51 1250 0 902 0 905 -22 1006 -78 349 -245 624 -503
823 -112 86 -423 271 -1070 636 -80 45 -239 137 -355 205 -244 143 -463 270
-660 383 -77 44 -192 110 -255 147 -191 112 -736 427 -1055 611 -165 95 -354
204 -420 243 -66 38 -183 106 -260 149 -77 44 -167 96 -200 115 -167 100 -284
127 -419 96z"/>
</g>
</svg>
